HIERARCHY
ROOT pelvis
{
	OFFSET 0.000000 0.000000 0.000000
	CHANNELS 6 Xposition Yposition Zposition Zrotation Xrotation Yrotation
	JOINT lfemur
	{
		OFFSET 11.446000 0.000000 0.000000
		CHANNELS 3 Zrotation Xrotation Yrotation
		JOINT ltibia
		{
			OFFSET 0.000000 -42.030400 0.000000
			CHANNELS 3 Zrotation Xrotation Yrotation
			JOINT lfoot
			{
				OFFSET 0.000000 -39.930200 0.000000
				CHANNELS 3 Zrotation Xrotation Yrotation
				JOINT ltoes
				{
					OFFSET 0.000000 0.000000 11.775800
					CHANNELS 3 Zrotation Xrotation Yrotation
					End Site
					{
					    OFFSET 0.000000 0.000000 5.000000
					}
				}
			}
		}
	}
	JOINT rfemur
	{
		OFFSET -11.446000 0.000000 0.000000
		CHANNELS 3 Zrotation Xrotation Yrotation
		JOINT rtibia
		{
			OFFSET 0.000000 -42.030400 0.000000
			CHANNELS 3 Zrotation Xrotation Yrotation
			JOINT rfoot
			{
				OFFSET 0.000000 -39.930200 0.000000
				CHANNELS 3 Zrotation Xrotation Yrotation
				JOINT rtoes
				{
					OFFSET 0.000000 0.000000 11.775800
					CHANNELS 3 Zrotation Xrotation Yrotation
					End Site
					{
					    OFFSET 0.000000 0.000000 5.000000
					}
				}
			}
		}
	}
	JOINT thorax
	{
		OFFSET 0.000000 11.255600 -5.000000
		CHANNELS 3 Zrotation Xrotation Yrotation
		JOINT head
		{
			OFFSET 0.000000 43.799300 0.000000
			CHANNELS 3 Zrotation Xrotation Yrotation
			End Site
			{
			    OFFSET 0.000000 5.000000 0.000000
			}
		}
		JOINT lclavicle
		{
			OFFSET 0.000000 39.863000 0.000000
			CHANNELS 3 Zrotation Xrotation Yrotation
			JOINT lhumerus
			{
				OFFSET 17.380600 4.958300 0.000000
				CHANNELS 3 Zrotation Xrotation Yrotation
				JOINT lradius
				{
					OFFSET 0.000000 -27.561300 0.000000
					CHANNELS 3 Zrotation Xrotation Yrotation
					JOINT lhand
					{
						OFFSET 0.000000 -26.933000 0.000000
						CHANNELS 3 Zrotation Xrotation Yrotation
						End Site
						{
						    OFFSET 0.000000 -5.000000 0.000000
						}
					}
				}
			}
		}
		JOINT rclavicle
		{
			OFFSET 0.000000 39.863000 0.000000
			CHANNELS 3 Zrotation Xrotation Yrotation
			JOINT rhumerus
			{
				OFFSET -17.380600 4.958300 0.000000
				CHANNELS 3 Zrotation Xrotation Yrotation
				JOINT rradius
				{
					OFFSET 0.000000 -27.561300 0.000000
					CHANNELS 3 Zrotation Xrotation Yrotation
					JOINT rhand
					{
						OFFSET 0.000000 -26.933000 0.000000
						CHANNELS 3 Zrotation Xrotation Yrotation
						End Site
						{
						    OFFSET 0.000000 -5.000000 0.000000
						}
					}
				}
			}
		}
	}
}
MOTION
Frames:	7
Frame Time:	0.0333333
-68.6237 82.0318 -180.724 1.87216 4.21825 -5.34041 4.6455 -31.8952 5.47083 14.9938 86.6021 -14.737 2.32159 1.99037 -6.87498 -0 -5 -0 7.74446 -8.52426 1.09308 -0.398439 45.6471 0.104243 -4.40628 -17.4949 -15.4294 1.39131e-016 -5 1.59635e-015 -0.398833 10.7565 1.69096 2.74771 -18.0972 -5.88125 8.82781e-032 -3.18055e-015 1.59028e-015 12.1391 13.9175 -32.9856 104.859 -50.5772 79.5645 -0.509921 2.82068 20.5115 8.82781e-032 -3.18055e-015 1.59028e-015 -14.7254 -2.96163 43.3116 -127.17 -41.9027 -97.975 0.00822884 -0.369784 2.64034 
-68.8921 83.7023 -171.296 1.18393 4.0276 -5.75125 3.26694 -36.6165 5.23871 3.16528 76.7121 -3.01517 1.73563 1.95343 -3.76791 1.59028e-015 -5 -0 7.01986 0.848789 1.88509 -0.275209 39.0114 0.121134 -3.14914 -10.5387 -9.92094 -1.39131e-016 -5 -1.59635e-015 0.926007 9.06505 1.87489 1.48825 -17.5482 -5.8419 7.95139e-016 -1.59028e-015 7.95139e-016 9.21068 19.1718 -30.8222 107.277 -49.9886 81.6257 -0.546931 2.91756 21.2502 7.95139e-016 -1.59028e-015 7.95139e-016 -16.0311 -2.53843 45.9395 -130.499 -39.826 -100.55 -0.00348539 0.204017 -1.44617 
-69.1226 85.4189 -161.699 1.13084 4.18939 -4.08252 -0.773688 -38.7172 1.63862 1.03495 61.1275 -1.03525 1.33084 2.60693 -0.355219 -2.93221e-016 -5 1.19726e-015 5.68219 8.19509 0.450134 -0.200143 33.3317 0.199305 -4.44189 0.314882 -4.04634 -0 -5 -0 1.14771 9.02781 6.20724 0.157131 -17.6667 -10.7644 9.93923e-017 1.59028e-015 -0 9.81336 19.6616 -34.5324 107.113 -50.0308 81.4866 -0.538753 2.89635 21.0885 9.93923e-017 1.59028e-015 -0 -15.6546 -3.13212 42.0767 -130.956 -39.5205 -100.898 -0.00123719 0.23579 -1.67354 
-69.3756 86.8605 -151.514 1.11407 4.13602 -3.13979 -4.6874 -37.0847 -3.57016 0.334387 41.3225 -0.423495 0.667573 11.2841 2.62021 6.31137e-016 -5 3.99088e-016 3.58041 14.342 -0.247208 -0.146112 28.9252 0.515979 -5.00491 14.6406 2.22668 1.98785e-016 -5 -0 1.37354 6.56229 5.79991 -0.180658 -16.5483 -10.8796 5.96354e-016 -3.18055e-015 -3.97569e-016 8.26112 24.5236 -33.387 109.218 -49.4636 83.2723 -0.466795 2.70271 19.6153 5.96354e-016 -3.18055e-015 -3.97569e-016 -16.2743 -0.543794 43.7567 -132.619 -38.3655 -102.153 -0.00605591 0.103309 -0.731612 
-69.9285 87.3093 -141.332 0.440194 4.07604 -3.44101 -6.00007 -35.1186 -8.5463 0.0942433 22.5472 -0.142903 -0.837109 25.0141 4.47395 -5.96534e-017 -5 1.59635e-015 1.9901 18.7516 1.54899 -0.126613 27.1922 -0.1319 -4.88252 26.8635 7.03233 5.88875e-016 -5 2.19498e-015 1.95419 6.03562 9.28732 -0.436241 -16.2213 -13.1355 3.97569e-016 0 7.95139e-016 9.18256 25.5014 -35.4668 110.726 -49.0223 84.5459 -0.407998 2.5319 18.3268 3.97569e-016 0 7.95139e-016 -16.642 0.453875 43.5694 -134.343 -37.0919 -103.435 -0.006141 0.0510524 -0.361462 
-70.7456 86.6954 -131.684 -1.27492 3.97223 -3.91712 -4.69976 -35.2273 -3.28052 0.0390436 11.3581 -0.0026255 1.22184 30.6429 -0.434614 3.97569e-016 -5 -0 2.14038 21.3563 3.69134 -0.175879 31.2616 -0.150007 -4.96723 26.0601 7.00455 9.42966e-016 -5 1.69612e-015 3.79242 5.20558 10.8077 0.876854 -14.8104 -11.9631 -5.96354e-016 0 -0 9.54714 27.2996 -35.8963 113.42 -48.1561 86.8074 -0.345736 2.33574 16.8604 -5.96354e-016 0 -0 -16.7302 1.72846 45.264 -134.86 -36.6945 -103.815 -0.00484018 0.0712956 -0.506566 
-71.5438 85.2274 -122.69 -2.59033 2.51428 -3.3188 -5.25428 -34.4766 3.65436 0.0335482 10.1234 0.195515 0.891579 35.2512 1.05523 4.7957e-016 -5 -1.99544e-016 2.47118 21.735 4.04849 -0.341646 41.2979 -0.00642966 -4.346 20.0347 6.54271 -7.34269e-016 -5 6.98404e-016 4.75434 6.70406 10.5561 1.33522 -15.0014 -12.1897 3.97569e-016 -1.59028e-015 -0 10.4799 27.7013 -36.15 116.255 -47.1303 89.1661 -0.315816 2.23464 16.1088 3.97569e-016 -1.59028e-015 -0 -16.7142 -0.572993 46.6643 -133.716 -37.5645 -102.972 -0.0029922 0.109553 -0.777011 
